<svg width="44" height="32" viewBox="0 0 44 32" fill="none" xmlns="http://www.w3.org/2000/svg">
<g filter="url(#filter0_d)">
<path d="M23.0938 12.7365C25.2533 12.7365 27.0202 15.0063 27.0202 15.5738C27.0202 16.1412 25.2533 18.0328 23.0938 18.0328C20.9343 18.0328 19.3637 15.5738 19.3637 15.5738C19.3637 15.5738 20.9343 12.7364 23.0938 12.7365Z" fill="#FFFDFB"/>
<path d="M17.0078 13.3039L19.3637 15.5738M19.3637 15.5738L17.0078 17.8436M19.3637 15.5738C19.3637 15.5738 20.9343 18.0328 23.0938 18.0328C25.2533 18.0328 27.0202 16.1412 27.0202 15.5738C27.0202 15.0063 25.2533 12.7365 23.0938 12.7365C20.9343 12.7364 19.3637 15.5738 19.3637 15.5738Z" stroke="#FFFDFB" stroke-width="2" stroke-linecap="round" stroke-linejoin="round"/>
<path d="M10.8663 7.12964H11.057L11.3702 6.55509C11.5957 6.14144 12.0014 5.69213 12.3519 5.35787C12.5317 5.18646 12.7101 5.03279 12.8625 4.91715C12.9381 4.85985 13.0143 4.80653 13.0856 4.76421C13.1335 4.73586 13.2546 4.66456 13.3971 4.64837L13.3973 4.64835C13.6206 4.62304 13.7897 4.47186 13.841 4.28728C14.0044 3.70004 14.559 3.29768 15.0462 3.06921C15.5493 2.83332 16.1675 2.69355 16.662 2.77412L16.6622 2.77416C16.8854 2.81062 17.0988 2.70994 17.2054 2.5402L17.2055 2.54002C17.484 2.09687 17.9641 1.80733 18.4429 1.67111C18.9228 1.53455 19.4856 1.52793 19.9644 1.75371L19.9644 1.75372C20.1644 1.84808 20.4033 1.81288 20.5623 1.6729L20.5623 1.67287C20.9564 1.32588 21.5 1.17964 21.999 1.17937C22.4981 1.1791 23.0424 1.32481 23.4378 1.67284L23.4379 1.6729C23.5968 1.81284 23.8354 1.84812 24.0358 1.75368L10.8663 7.12964ZM10.8663 7.12964L10.9178 6.9068C11.3232 5.15423 12.9292 4.62098 13.1215 4.55952L13.3183 4.49663L13.4133 4.31317C14.2817 2.63629 16.0835 2.54812 16.2884 2.5412L16.4911 2.53435L16.6318 2.38826C17.6946 1.28422 19.1397 1.26962 19.9171 1.46185L20.1118 1.50998L20.2857 1.4103C21.6344 0.637532 23.0268 1.01654 23.7142 1.41032L23.8881 1.50999L24.0828 1.46185C24.8599 1.26962 26.3047 1.28397 27.3678 2.38826L27.5085 2.53443L27.7113 2.5412C27.8666 2.54639 28.9181 2.59726 29.8006 3.33059M10.8663 7.12964L29.8006 3.33059M29.8006 3.33059C29.6544 3.22912 29.5015 3.14359 29.3546 3.07391C28.853 2.83593 28.2331 2.69206 27.7308 2.77411C27.5071 2.81052 27.2937 2.70989 27.187 2.54011L27.187 2.54004C27.0273 2.2858 26.7848 2.09823 26.5392 1.9634C26.2891 1.82614 26.0047 1.72632 25.7204 1.66252C25.1756 1.54027 24.5172 1.52675 24.0359 1.75366L29.8006 3.33059ZM14.8045 4.55528L14.8044 4.55551C14.6455 5.12635 14.1608 5.53847 13.5833 5.63189C13.5563 5.64881 13.5173 5.67561 13.4669 5.71388C13.3509 5.80185 13.2013 5.92974 13.042 6.08157C12.9698 6.1505 12.898 6.22193 12.8285 6.29439H31.2763C31.2016 6.19119 31.1266 6.09207 31.0546 6.00043C30.9358 5.8494 30.8304 5.72575 30.7529 5.64278C30.7439 5.63313 30.7356 5.6244 30.728 5.61654C30.187 5.49921 29.7395 5.0995 29.5883 4.5553C29.5467 4.40552 29.3355 4.17164 28.926 3.9774C28.533 3.79096 28.125 3.72291 27.8919 3.76105L27.8915 3.76112C27.2861 3.85966 26.6687 3.59496 26.3403 3.07205C26.302 3.01123 26.2155 2.92649 26.058 2.84002C25.9049 2.75597 25.7119 2.6855 25.5014 2.63826C25.0567 2.53846 24.6557 2.56699 24.4623 2.65819L24.4622 2.65822C23.906 2.92038 23.2393 2.83045 22.777 2.4234C22.6127 2.27886 22.3285 2.17919 21.9995 2.17937C21.6705 2.17955 21.3865 2.2796 21.2231 2.4234C20.7609 2.83042 20.0938 2.92043 19.5378 2.65817L14.8045 4.55528ZM14.8045 4.55528C14.8476 4.40014 15.0609 4.16681 15.4708 3.9746M14.8045 4.55528L15.4708 3.9746M15.4708 3.9746C15.8648 3.78984 16.2727 3.72396 16.501 3.76107M15.4708 3.9746L16.501 3.76107M16.501 3.76107C17.1069 3.86007 17.7242 3.59443 18.0522 3.07208M16.501 3.76107L16.5816 3.26761L18.0522 3.07208M18.0522 3.07208C18.1641 2.89408 18.4028 2.72219 18.7165 2.63294M18.0522 3.07208L18.7165 2.63294M18.7165 2.63294C19.029 2.54405 19.3321 2.56119 19.5378 2.65816L18.7165 2.63294ZM36.7743 7.71341L36.7743 7.71346L38.9677 22.4872C38.9778 22.5558 38.9719 22.6258 38.9504 22.6923L38.9406 22.6278L36.647 7.55442L36.6297 7.44032C36.7074 7.51446 36.759 7.61052 36.7743 7.71341ZM5.05925 22.6278L5.04944 22.6922C5.02802 22.6259 5.02217 22.556 5.03237 22.4876L5.0324 22.4874L7.22553 7.71345L7.22554 7.71342C7.2408 7.61052 7.29244 7.51446 7.37018 7.44032L7.35282 7.55442L5.05925 22.6278ZM33.1333 7.12964H32.943L32.6293 6.55486C32.4058 6.14541 32.1 5.71204 31.8406 5.38225C31.7103 5.21661 31.5862 5.07 31.484 4.96047C31.4338 4.90672 31.3822 4.8546 31.3335 4.81203C31.3098 4.79133 31.278 4.76502 31.2412 4.7406L31.2393 4.73937C31.2183 4.72532 31.1253 4.66315 30.9955 4.64838L30.9953 4.64836C30.772 4.62303 30.603 4.47176 30.5518 4.28759L30.5518 4.28749C30.5431 4.25637 30.5333 4.22576 30.5225 4.19565C30.5443 4.23389 30.5656 4.27301 30.5863 4.31303L30.6813 4.49631L30.8779 4.55921C31.0675 4.61987 32.6752 5.15043 33.0818 6.90689L33.1333 7.12964ZM13.6169 5.61297C13.6168 5.61319 13.6137 5.61487 13.6079 5.61735C13.6141 5.614 13.617 5.61276 13.6169 5.61297Z" fill="#FFFDFB" stroke="#FFFDFB" stroke-width="0.999999"/>
</g>
<defs>
<filter id="filter0_d" x="0.527473" y="0.461548" width="42.9451" height="31.0769" filterUnits="userSpaceOnUse" color-interpolation-filters="sRGB">
<feFlood flood-opacity="0" result="BackgroundImageFix"/>
<feColorMatrix in="SourceAlpha" type="matrix" values="0 0 0 0 0 0 0 0 0 0 0 0 0 0 0 0 0 0 127 0"/>
<feOffset dy="4"/>
<feGaussianBlur stdDeviation="2"/>
<feColorMatrix type="matrix" values="0 0 0 0 0 0 0 0 0 0 0 0 0 0 0 0 0 0 0.25 0"/>
<feBlend mode="normal" in2="BackgroundImageFix" result="effect1_dropShadow"/>
<feBlend mode="normal" in="SourceGraphic" in2="effect1_dropShadow" result="shape"/>
</filter>
</defs>
</svg>
