<svg width="61" height="43" viewBox="0 0 61 43" fill="none" xmlns="http://www.w3.org/2000/svg">
<g filter="url(#filter0_d)">
<path d="M32.1588 18.617C35.4341 18.617 38.1139 22.0596 38.1139 22.9203C38.1139 23.7809 35.4341 26.6498 32.1588 26.6498C28.8835 26.6498 26.5015 22.9203 26.5015 22.9203C26.5015 22.9203 28.8835 18.617 32.1588 18.617Z" fill="#FFFDFB"/>
<path d="M22.9285 19.4777L26.5015 22.9203M26.5015 22.9203L22.9285 26.3629M26.5015 22.9203C26.5015 22.9203 28.8835 26.6498 32.1588 26.6498C35.4341 26.6498 38.1139 23.7809 38.1139 22.9203C38.1139 22.0596 35.4341 18.617 32.1588 18.617C28.8835 18.617 26.5015 22.9203 26.5015 22.9203Z" stroke="#FFFDFB" stroke-width="2" stroke-linecap="round" stroke-linejoin="round"/>
<path d="M53.1632 10.9608L53.1632 10.9608C53.0925 10.4839 52.6601 10.1044 52.1209 10.1044H48.0462H47.6487L47.559 9.71717C46.9084 6.9062 44.3392 6.06334 44.0435 5.96874L43.8469 5.90584L43.7519 5.72256C42.3626 3.04144 39.4927 2.90672 39.1708 2.89596L38.968 2.88918L38.8273 2.74301C37.129 0.978969 34.8295 0.961442 33.5968 1.26634L33.4022 1.31449L33.2282 1.21482C32.1355 0.58879 29.922 -0.0174232 27.7716 1.2148L27.5976 1.31448L27.403 1.26635C26.1699 0.961438 23.87 0.979353 22.1721 2.74301L22.0314 2.8891L21.8287 2.89595C21.51 2.90672 18.636 3.04155 17.2475 5.72283L17.1525 5.90629L16.9557 5.96918C16.6555 6.06511 14.0891 6.91213 13.4403 9.71709L13.3508 10.1044H12.9532H8.8789C8.33967 10.1044 7.90727 10.4839 7.83653 10.9608L7.83652 10.9608L4.51028 33.3679L4.51024 33.3681C4.4688 33.6463 4.55418 33.9315 4.75113 34.1502M53.1632 10.9608L4.75113 34.1502M53.1632 10.9608L56.4899 33.3677C56.5311 33.646 56.4456 33.9313 56.2489 34.1499M53.1632 10.9608L56.2489 34.1499M4.75113 34.1502C4.94865 34.3695 5.24061 34.5 5.55266 34.5H55.4471C55.759 34.5 56.0507 34.3696 56.2489 34.1499M4.75113 34.1502L56.2489 34.1499M19.3379 6.13965L19.3378 6.13988C19.1209 6.91908 18.4486 7.4823 17.647 7.59366C17.6403 7.59729 17.6318 7.60203 17.6216 7.60811C17.5692 7.63914 17.4953 7.68941 17.402 7.76021C17.2166 7.90078 16.9823 8.10141 16.7355 8.33675C16.4826 8.5779 16.2297 8.84303 16.0094 9.10481H45.0638C44.8586 8.79828 44.6393 8.49967 44.4358 8.24094C44.2527 8.00811 44.088 7.81463 43.9641 7.68193C43.9242 7.63913 43.8911 7.60554 43.8651 7.5804C43.101 7.44286 42.4668 6.89209 42.2578 6.13967L19.3379 6.13965ZM19.3379 6.13965C19.4343 5.7927 19.846 5.39513 20.4877 5.09424C21.1136 4.80073 21.7868 4.68175 22.2017 4.74936C23.0218 4.88326 23.8537 4.52291 24.2939 3.82168C24.5066 3.48329 24.9311 3.19227 25.4494 3.04481C25.9665 2.89767 26.4934 2.91753 26.8759 3.09789C27.6272 3.45228 28.5283 3.32993 29.151 2.7816C29.4584 2.511 29.9562 2.34732 30.4991 2.34703C31.0421 2.34673 31.5404 2.50983 31.8492 2.78165C32.472 3.32997 33.3726 3.45222 34.1242 3.09794L34.1243 3.09792M19.3379 6.13965L34.1243 3.09792M34.1243 3.09792C34.492 2.92452 35.1666 2.89211 35.8671 3.04928C36.2054 3.1252 36.5217 3.23967 36.7789 3.38088C37.0406 3.52451 37.2121 3.67957 37.3014 3.82177M34.1243 3.09792L39.3943 4.74931M39.3943 4.74931L39.3939 4.74937C38.5742 4.88277 37.7423 4.52367 37.3014 3.82177M39.3943 4.74931C39.8175 4.68008 40.491 4.80287 41.1152 5.09898M39.3943 4.74931L41.1152 5.09898M37.3014 3.82177L37.7248 3.55583L37.3015 3.82183C37.3014 3.82181 37.3014 3.82179 37.3014 3.82177ZM41.1152 5.09898C41.7558 5.40284 42.1637 5.80125 42.2578 6.13958L41.1152 5.09898ZM17.4816 6.60668L17.4815 6.60669C17.326 6.62436 17.1848 6.70451 17.1116 6.74792C17.0148 6.8053 16.9078 6.87988 16.7976 6.96348C16.5758 7.13172 16.3127 7.35813 16.0454 7.61305C15.5197 8.11431 14.9275 8.7737 14.6049 9.36551L14.202 10.1048H15.044H45.9554H46.7979L46.3943 9.36528C46.0646 8.7611 45.6099 8.11617 45.2218 7.62276C45.0272 7.37531 44.8438 7.15889 44.6952 6.99962C44.6218 6.92101 44.5502 6.84905 44.4857 6.79267C44.4542 6.76507 44.4155 6.73336 44.373 6.70518L44.3712 6.70401C44.3458 6.68706 44.2479 6.62196 44.1139 6.6067L44.1137 6.60668C43.6754 6.55697 43.3284 6.25749 43.2213 5.87196L43.2213 5.87187C43.0076 5.10314 42.2604 4.5354 41.5438 4.19548C40.811 3.84785 39.9256 3.64923 39.2332 3.76236C38.7953 3.83364 38.3673 3.63862 38.1482 3.28989L38.1482 3.28982C37.9373 2.95419 37.6099 2.69627 37.2601 2.50427C36.9059 2.30984 36.4981 2.16602 36.086 2.07355C35.2855 1.89392 34.3535 1.88428 33.6978 2.19341C33.3019 2.37997 32.8294 2.31234 32.51 2.03109L32.51 2.03104C31.97 1.55575 31.2116 1.34664 30.4986 1.34703C29.7857 1.34741 29.0283 1.55728 28.4902 2.03107L28.4902 2.03109C28.1707 2.31238 27.6978 2.37993 27.3024 2.19344L27.3024 2.19343C26.6469 1.88427 25.8604 1.88818 25.1757 2.08298C24.4922 2.27744 23.8264 2.68619 23.4471 3.2898L23.447 3.28998C23.2281 3.63854 22.8001 3.83386 22.3628 3.76241L22.3625 3.76237C21.6813 3.65138 20.7979 3.84428 20.0631 4.18884C19.3441 4.52599 18.5911 5.09259 18.3744 5.87166C18.267 6.25759 17.9201 6.55697 17.4816 6.60668ZM17.6677 7.5833C17.6677 7.58331 17.6672 7.58354 17.6662 7.58393L17.6677 7.5833ZM5.06192 33.6576L4.9744 34.2328H5.55623H55.4435H56.0254L55.9378 33.6576L52.4593 10.7964L52.3946 10.3716H51.965H9.03481H8.60513L8.5405 10.7964L5.06192 33.6576Z" fill="#FFFDFB" stroke="#FFFDFB" stroke-width="0.999999"/>
</g>
<defs>
<filter id="filter0_d" x="0" y="0" width="61" height="43" filterUnits="userSpaceOnUse" color-interpolation-filters="sRGB">
<feFlood flood-opacity="0" result="BackgroundImageFix"/>
<feColorMatrix in="SourceAlpha" type="matrix" values="0 0 0 0 0 0 0 0 0 0 0 0 0 0 0 0 0 0 127 0"/>
<feOffset dy="4"/>
<feGaussianBlur stdDeviation="2"/>
<feColorMatrix type="matrix" values="0 0 0 0 0 0 0 0 0 0 0 0 0 0 0 0 0 0 0.25 0"/>
<feBlend mode="normal" in2="BackgroundImageFix" result="effect1_dropShadow"/>
<feBlend mode="normal" in="SourceGraphic" in2="effect1_dropShadow" result="shape"/>
</filter>
</defs>
</svg>
