<svg width="18" height="18" xmlns="http://www.w3.org/2000/svg" xmlns:xlink="http://www.w3.org/2000/svg">
    <symbol id="nothing" width="18" height="18" viewBox="0 0 18 18">
        <path d="M18 9C18 11.404 17.0638 13.6641 15.364 15.364C13.6641 17.0638 11.404 18 9 18C7.31711 18 5.70505 17.5406 4.30601 16.6823L5.33784 15.6504C6.42452 16.2512 7.67292 16.5938 9 16.5938C13.1872 16.5938 16.5938 13.1872 16.5938 9C16.5938 7.67292 16.2512 6.42452 15.6504 5.33788L16.6823 4.30604C17.5406 5.70505 18 7.31711 18 9ZM1.02452 17.9698L0.0301641 16.9755L2.1581 14.8475C0.76173 13.2189 0 11.1681 0 9C0 6.59602 0.936176 4.33593 2.63602 2.63602C4.33593 0.936176 6.59602 0 9 0C11.1681 0 13.2189 0.76173 14.8475 2.1581L16.9755 0.0301641L17.9698 1.02452L1.02452 17.9698ZM3.15889 13.8467L13.8467 3.15889C12.5308 2.06504 10.841 1.40625 9 1.40625C4.81279 1.40625 1.40625 4.81279 1.40625 9C1.40625 10.841 2.06501 12.5308 3.15889 13.8467Z" fill="#777777"/>
    </symbol>

    <symbol id="bed" width="18" height="18" viewBox="0 0 18 14">
        <path d="M17.9948 3.9228C17.8909 1.72308 16.2648 0 14.2928 0H3.70685C1.73507 0 0.10916 1.72308 0.00527345 3.92276C0.00175782 3.9956 0 12.1069 0 12.1069C0 13.1507 0.759377 14 1.69278 14H16.3068C17.2404 14 18 13.1508 18 12.1069C18 12.1069 17.9983 3.99603 17.9948 3.9228ZM3.70685 0.875005H14.2928C15.7079 0.875005 16.8972 1.99937 17.1623 3.50831H16.3574C16.1053 2.47577 15.2704 1.74985 14.293 1.74985H9.1662C8.95013 1.74985 9.55749 1.94576 9.55749 2.18734C9.55749 2.42891 8.95013 2.62482 9.1662 2.62482H14.293C14.837 2.62482 15.3116 2.97909 15.528 3.50827H15.1385C14.1625 3.50827 13.3621 4.36484 13.3074 5.44094C11.9396 4.95822 10.4697 4.7168 8.99991 4.7168C7.53013 4.7168 6.06035 4.95818 4.6927 5.4409C4.63793 4.36484 3.83742 3.50827 2.86127 3.50827H2.47174C2.68809 2.97913 3.1627 2.62482 3.70678 2.62482H9.1662C9.38227 2.62482 9.55749 2.42891 9.55749 2.18734C9.55749 1.94576 9.38227 1.74985 9.1662 1.74985H3.70678C2.72936 1.74985 1.89443 2.47577 1.64236 3.50831H0.83774C1.10282 1.99937 2.29195 0.875005 3.70685 0.875005ZM13.3044 6.36044V7.84611C13.3044 8.49432 12.8325 9.02166 12.2525 9.02166H5.74711C5.16735 9.02166 4.69569 8.49428 4.69569 7.84611V6.36044C7.41155 5.3336 10.5882 5.3336 13.3044 6.36044ZM17.2174 12.1069C17.2174 12.6682 16.8089 13.125 16.3068 13.125H1.69278C1.19089 13.125 0.782615 12.6683 0.782615 12.1069V11.8107V11.3732V10.9357V4.38332H2.86123C3.44124 4.38332 3.91307 4.9107 3.91307 5.55882V7.84608C3.91307 8.97681 4.73584 9.89662 5.74711 9.89662H12.8572C13.3074 9.89662 14.0869 9.34375 14.0869 7.84611V5.55886C14.0869 4.9107 14.5586 4.38336 15.1383 4.38336H17.2174L17.2174 12.1069Z" fill="#777777"/>
    </symbol>
    <symbol  id="kogtetochka" width="18" height="18" viewBox="0 0 16 18">
        <path d="M15.1174 15.3134H10.1675V2.6867H12.104V7.68131C11.5221 7.81455 11.0852 8.35506 11.0852 9.00004C11.0852 9.7447 11.6673 10.3505 12.3829 10.3505C13.0984 10.3505 13.6806 9.74474 13.6806 9.00004C13.6806 8.35506 13.2437 7.81455 12.6619 7.68131V2.6867H14.3628C14.8495 2.6867 15.2454 2.27463 15.2454 1.76815V0.918546C15.2454 0.412066 14.8495 0 14.3628 0H1.63721C1.15054 0 0.754593 0.412066 0.754593 0.918546V1.76811C0.754593 2.27463 1.15054 2.68666 1.63721 2.68666H5.8325V15.3133H0.882621C0.39595 15.3133 0 15.7254 0 16.2319V17.0815C0 17.588 0.39595 18 0.882621 18H15.1174C15.6041 18 16 17.5879 16 17.0815V16.2319C16 15.7254 15.6041 15.3134 15.1174 15.3134ZM13.1226 9.00004C13.1226 9.42453 12.7908 9.7699 12.3829 9.7699C11.975 9.7699 11.6431 9.42453 11.6431 9.00004C11.6431 8.57555 11.975 8.23018 12.3829 8.23018C12.7908 8.23018 13.1226 8.57555 13.1226 9.00004ZM1.63721 1.76815V0.918546C1.63721 0.732235 1.91026 0.667969 2.08929 0.667969H14.1753C14.3543 0.667969 14.5 0.732235 14.5 0.918546V1.76811C14.5 1.95442 14.3543 2.00391 14.1753 2.00391H2.08929C1.91026 2.00395 1.63721 1.95446 1.63721 1.76815ZM6.55357 13.2525H6.86606C6.86606 13.2525 7.14503 13.1226 7.14503 12.9622C7.14503 12.8018 7.02013 12.6719 6.86606 12.6719H6.55357V10.6111H9.49714C9.65124 10.6111 10.5938 10.4461 9.85332 10.2858C10.5938 10.1254 9.65124 10.0305 9.49714 10.0305H6.55357V7.96958H9.13397C9.28804 7.96958 8.855 7.83963 8.855 7.67926C8.855 7.51888 9.28804 7.38894 9.13397 7.38894L6.55357 7.38894V2.6867L9.49714 2.68666V4.74745L6.31014 4.74745C6.15608 4.74745 6.31014 4.71703 6.31014 4.8774C6.31014 5.3281 6.14701 5.32814 6.14701 5.32814L9.49714 5.3281V7.3889L9.13397 7.38894C8.97987 7.38894 8.855 7.51888 8.855 7.67926C8.855 7.83963 8.97987 7.96958 9.13397 7.96958L9.49714 7.96955V10.3207V12.6719L6.86606 12.6719C6.712 12.6719 7.14503 12.8018 7.14503 12.9622C7.14503 13.1226 6.712 13.2525 6.86606 13.2525L9.49714 13.2525V15.3133L6.55357 15.3133V13.2525ZM15.3176 17.0815C15.3176 17.2678 15.0362 17.3145 14.8571 17.3145H1.03897C0.859945 17.3145 0.714286 17.2678 0.714286 17.0815V16.232C0.714286 16.0457 0.859945 15.9961 1.03897 15.9961H14.9928C15.1719 15.9961 15.3175 16.0457 15.3175 16.232L15.3176 17.0815Z" fill="#777777"/>
    </symbol>
    <symbol  id="klubok" width="18" height="18" viewBox="0 0 18 18">
        <path d="M16.3435 14.6859H11.8023C14.1546 13.3235 15.7407 10.7788 15.7407 7.87025C15.7407 3.53062 12.2099 0 7.87033 0C3.53059 0 0 3.53062 0 7.87025C0 12.21 3.53059 15.7406 7.87033 15.7406H16.3435C16.6753 15.7406 16.9453 16.0106 16.9453 16.3435C16.9453 16.676 16.6763 16.9453 16.3435 16.9453H9C8.70872 16.9453 8.47266 17.1814 8.47266 17.4727C8.47266 17.7639 8.70872 18 9 18H16.3435C17.2492 18 18 17.269 18 16.3424C18 15.429 17.2569 14.6859 16.3435 14.6859ZM7.87033 14.6859C7.57535 14.6859 7.28462 14.667 6.99939 14.6305L12.762 11.3035L13.4892 11.7233C12.2594 13.5112 10.1996 14.6859 7.87033 14.6859ZM4.04778 13.5103L10.3162 9.89134L11.7073 10.6946L5.51857 14.2676C4.99535 14.0747 4.50206 13.8191 4.04778 13.5103ZM3.50601 2.63962C3.9294 2.28572 4.39618 1.98209 4.89716 1.73819V8.97796L3.50601 9.7812V2.63962ZM5.95184 1.33004C6.39844 1.19875 6.86371 1.11169 7.34299 1.07488V7.56579L5.95184 8.36904V1.33004ZM14.686 7.87025C14.686 8.0356 14.6797 8.19943 14.6681 8.3619L8.39767 4.7416V3.13525L14.5864 6.7083C14.6516 7.0861 14.686 7.47419 14.686 7.87025ZM8.39767 5.95944L14.4937 9.47894C14.381 9.94311 14.2208 10.389 14.0183 10.8109L8.39767 7.56579V5.95944ZM14.1593 5.24395L8.39767 1.9174V1.07488C10.9976 1.27484 13.1936 2.9401 14.1593 5.24395ZM2.45132 3.74183V10.3901L1.72238 10.8109C1.2946 9.92018 1.05469 8.92275 1.05469 7.87025C1.05469 6.31952 1.57571 4.8884 2.45132 3.74183ZM2.25151 11.7233L7.87033 8.47917L9.26147 9.28242L3.16859 12.8001C2.82719 12.4742 2.51971 12.1133 2.25151 11.7233Z" fill="#777777"/>
    </symbol>

    <symbol  id="home" width="18" height="18" viewBox="0 0 18 18">
        <path d="M17.8455 8.06232L10.3373 0.553986C9.98039 0.196793 9.50551 0 9 0C8.49449 0 8.01961 0.196793 7.66296 0.553848L0.154495 8.06232C0.0554809 8.16119 0 8.29536 0 8.4353C0 8.5751 0.0556183 8.70927 0.154633 8.80829C0.154633 8.80829 0.408417 9.0618 0.719467 9.37285C1.3163 9.96982 2.13835 10.1106 2.82431 9.90884V17.4727C2.82431 17.7639 3.06038 18 3.35165 18H14.6485C14.9396 18 15.1758 17.7639 15.1758 17.4727V9.90884C15.8616 10.1106 16.6838 9.96982 17.2804 9.37285C17.5916 9.0618 17.8454 8.80829 17.8454 8.80829C17.9442 8.70927 18 8.57524 18 8.4353C18 8.29536 17.9445 8.16119 17.8455 8.06232ZM14.1211 9.21849V14.686H11.7867V11.2593C11.7867 9.72029 10.5419 8.47266 9 8.47266C7.46068 8.47266 6.21332 9.71741 6.21332 11.2593V14.686H3.87886V9.21849L9 4.09735L14.1211 9.21849ZM3.87886 15.7407H6.21332V16.9453H3.87886V15.7407ZM7.26801 16.9453V11.2593C7.26801 10.3046 8.03966 9.52734 9 9.52734C9.95677 9.52734 10.732 10.3011 10.732 11.2593V16.9453H7.26801ZM11.7867 16.9453V15.7407H14.1211V16.9453H11.7867ZM16.5346 8.62715C16.1169 9.04504 15.4399 9.04559 15.0216 8.62715C15.0183 8.62386 15.0147 8.62042 15.0113 8.61713L9.37285 2.97867C9.16699 2.77267 8.83301 2.77267 8.62715 2.97867L2.98869 8.61713C2.98512 8.62042 2.98169 8.62372 2.97839 8.62715C2.56064 9.04504 1.88361 9.04573 1.4653 8.62715C1.39801 8.55972 1.33333 8.49504 1.27332 8.43503L8.40894 1.29941C8.73468 0.973251 9.2645 0.972427 9.59134 1.29955L16.7267 8.43503C16.6667 8.49504 16.602 8.55972 16.5346 8.62715Z" fill="#777777"/>
    </symbol>
</svg>